<svg width="20" height="20" viewBox="0 0 20 20" fill="none" xmlns="http://www.w3.org/2000/svg">
<path d="M19.07 14.83L17 12.71C16.5547 12.2868 15.9931 12.0063 15.3872 11.9047C14.7813 11.8032 14.1589 11.8851 13.6 12.14L12.7 11.24C13.7605 9.82292 14.2449 8.05668 14.0555 6.29684C13.8662 4.537 13.0172 2.91423 11.6794 1.7552C10.3417 0.596178 8.61452 -0.0130406 6.84565 0.0501869C5.07678 0.113414 3.39754 0.844393 2.14596 2.09597C0.894381 3.34755 0.163402 5.0268 0.100175 6.79567C0.0369472 8.56454 0.646165 10.2917 1.80519 11.6294C2.96421 12.9672 4.58699 13.8162 6.34683 14.0055C8.10667 14.1949 9.87291 13.7106 11.29 12.65L12.18 13.54C11.8951 14.0996 11.793 14.7346 11.8881 15.3553C11.9831 15.9761 12.2706 16.5513 12.71 17L14.83 19.12C15.3925 19.6818 16.155 19.9974 16.95 19.9974C17.745 19.9974 18.5075 19.6818 19.07 19.12C19.3557 18.8406 19.5828 18.5069 19.7378 18.1386C19.8928 17.7702 19.9726 17.3746 19.9726 16.975C19.9726 16.5754 19.8928 16.1798 19.7378 15.8114C19.5828 15.4431 19.3557 15.1094 19.07 14.83ZM10.59 10.59C9.89023 11.288 8.99929 11.7629 8.02973 11.9549C7.06017 12.1468 6.05549 12.047 5.14259 11.6682C4.2297 11.2894 3.44955 10.6485 2.9007 9.82654C2.35185 9.00457 2.05893 8.03837 2.05893 7.05C2.05893 6.06163 2.35185 5.09544 2.9007 4.27347C3.44955 3.45149 4.2297 2.81062 5.14259 2.43182C6.05549 2.05301 7.06017 1.95325 8.02973 2.14515C8.99929 2.33706 9.89023 2.812 10.59 3.51C11.0556 3.97446 11.4251 4.52621 11.6771 5.13367C11.9292 5.74112 12.0589 6.39233 12.0589 7.05C12.0589 7.70768 11.9292 8.35889 11.6771 8.96634C11.4251 9.57379 11.0556 10.1255 10.59 10.59ZM17.66 17.66C17.567 17.7537 17.4564 17.8281 17.3346 17.8789C17.2127 17.9297 17.082 17.9558 16.95 17.9558C16.818 17.9558 16.6873 17.9297 16.5654 17.8789C16.4436 17.8281 16.333 17.7537 16.24 17.66L14.12 15.54C14.0263 15.447 13.9519 15.3364 13.9011 15.2146C13.8503 15.0927 13.8242 14.962 13.8242 14.83C13.8242 14.698 13.8503 14.5673 13.9011 14.4454C13.9519 14.3236 14.0263 14.213 14.12 14.12C14.213 14.0263 14.3236 13.9519 14.4454 13.9011C14.5673 13.8503 14.698 13.8242 14.83 13.8242C14.962 13.8242 15.0927 13.8503 15.2146 13.9011C15.3364 13.9519 15.447 14.0263 15.54 14.12L17.66 16.24C17.7537 16.333 17.8281 16.4436 17.8789 16.5654C17.9296 16.6873 17.9558 16.818 17.9558 16.95C17.9558 17.082 17.9296 17.2127 17.8789 17.3346C17.8281 17.4564 17.7537 17.567 17.66 17.66Z" fill="white"/>
</svg>
