<svg width="18" height="18" viewBox="0 0 18 18" fill="none" xmlns="http://www.w3.org/2000/svg">
<path d="M13.725 9.9C13.725 10.521 13.221 11.025 12.6 11.025C11.979 11.025 11.475 10.521 11.475 9.9C11.475 9.279 11.979 8.775 12.6 8.775C13.221 8.775 13.725 9.279 13.725 9.9ZM18 9C18 13.95 13.95 18 9 18H0V9C0 4.05 4.05 0 9 0C13.95 0 18 4.05 18 9ZM4.5 14.4C5.769 15.507 7.2 16.2 9 16.2C12.969 16.2 16.2 12.969 16.2 9C16.2 8.289 16.092 7.605 15.903 6.966C15.255 7.119 14.58 7.2 13.878 7.2C12.078 7.2 10.413 6.66 9 5.751C9 5.751 7.686 10.584 5.427 9.9C4.833 9.72 4.5 10.179 4.5 10.8" fill="white"/>
</svg>
