<svg width="20" height="15" viewBox="0 0 20 15" fill="none" xmlns="http://www.w3.org/2000/svg">
<path d="M15.4545 0C13.9 0 12.9545 0.309375 12.4091 0.571875C11.7091 0.215625 10.9091 0 10 0C9.09091 0 8.29091 0.215625 7.59091 0.571875C7.04545 0.309375 6.1 0 4.54545 0C1.81818 0 0 7.5 0 9.375C0 10.1531 1.2 10.8656 2.85455 11.1562C3.43636 13.2562 6.18182 14.8594 9.54545 15V10.9875C9.00909 10.6406 8.18182 10.0125 8.18182 9.375C8.18182 8.4375 10 8.4375 10 8.4375C10 8.4375 11.8182 8.4375 11.8182 9.375C11.8182 10.0125 10.9909 10.6406 10.4545 10.9875V15C13.8182 14.8594 16.5636 13.2562 17.1455 11.1562C18.8 10.8656 20 10.1531 20 9.375C20 7.5 18.1818 0 15.4545 0ZM2.86364 9.25313C2.40909 9.14062 2.05455 9.00937 1.81818 8.90625C2.04545 6.30937 3.81818 2.25 4.59091 1.875C5.08182 1.875 5.45455 1.93125 5.79091 1.97813C3.88182 4.14375 3.12727 7.5375 2.86364 9.25313ZM7.27273 7.5C7.03162 7.5 6.80039 7.40123 6.6299 7.22541C6.45942 7.0496 6.36364 6.81114 6.36364 6.5625C6.36364 6.05625 6.77273 5.625 7.27273 5.625C7.51383 5.625 7.74506 5.72377 7.91555 5.89959C8.08604 6.0754 8.18182 6.31386 8.18182 6.5625C8.18182 7.0875 7.77273 7.5 7.27273 7.5ZM12.7273 7.5C12.4862 7.5 12.2549 7.40123 12.0844 7.22541C11.914 7.0496 11.8182 6.81114 11.8182 6.5625C11.8182 6.05625 12.2273 5.625 12.7273 5.625C12.9684 5.625 13.1996 5.72377 13.3701 5.89959C13.5406 6.0754 13.6364 6.31386 13.6364 6.5625C13.6364 7.0875 13.2273 7.5 12.7273 7.5ZM17.1364 9.25313C16.8727 7.5375 16.1182 4.14375 14.2091 1.97813C14.5455 1.93125 14.9182 1.875 15.4091 1.875C16.1818 2.25 17.9545 6.30937 18.1818 8.90625C17.9545 9.00937 17.6 9.14062 17.1364 9.25313Z" fill="white"/>
</svg>
